# xmcd
#
# Track frame offsets:
#	150
#	15897
#	33110
#	52024
#	73723
#	99958
#	119964
#	143043
#	162856
#	180360
#	199721
#	215764
#	264686
#	284185
#
# Disc length: 4033 seconds
#
# Revision: 6
# Processed by: cddbd v1.5.2PL0 Copyright (c) Steve Scherf et al.
# Submitted via: EasyCDDAExtractor 15.3.0.1
#
DISCID=d00fbf0e
DTITLE=Mariah Carey - The Essential Mariah Carey (US Edition) - CD 1
DYEAR=2012
DGENRE=R&B/Pop
TTITLE0=Vision Of Love
TTITLE1=Love Takes Time
TTITLE2=Vanishing
TTITLE3=I Don't Wanna Cry
TTITLE4=Emotions (12'' Club Mix)
TTITLE5=Can't Let Go
TTITLE6=Make It Happen
TTITLE7=I'll Be There (Featuring Trey Lorenz)
TTITLE8=Dreamlover
TTITLE9=Hero
TTITLE10=Without You
TTITLE11=Anytime You Need A Friend (C&C Club Remix)
TTITLE12=Endless Love (Duet With Luther Vandross)
TTITLE13=Fantasy
EXTD=
EXTT0=
EXTT1=
EXTT2=
EXTT3=
EXTT4=
EXTT5=
EXTT6=
EXTT7=
EXTT8=
EXTT9=
EXTT10=
EXTT11=
EXTT12=
EXTT13=
PLAYORDER=
